<svg id="Capa_1" enable-background="new 0 0 512 512" height="512" viewBox="0 0 512 512" width="512" xmlns="http://www.w3.org/2000/svg"><path d="m503.986 426.518c-.015-.426-.06-.849-.128-1.269-1.46-14.929-5.699-30.891-12.746-45.629-.072-.151-.148-.301-.229-.448l-38.725-71.503c-.01-.019-.017-.039-.027-.058-.021-.04-.046-.075-.067-.115l-86.669-160.03c-.149-.276-.312-.544-.485-.805-13.597-20.289-40.943-19.434-65.068-18.681-4.82.151-9.392.297-13.716.273-13.529-.068-26.043-1.174-37.511-3.276-.306-.071-.614-.127-.926-.169-56.001-10.579-86.694-45.233-87.418-100.135-.193-14.196-9.445-23.636-24.134-24.637-4.784-.332-11.463 1.4-27.907 16.167-10.533 9.457-22.894 22.391-34.81 36.419-14.212 16.732-48.618 59.872-61.137 99.004-12.258 38.313 1.643 56.461 15.464 64.94l15.654 9.6-19.122 31.188c-2.887 4.708-1.41 10.865 3.298 13.752l48.075 29.481c1.586.973 3.397 1.475 5.227 1.475.779 0 1.562-.091 2.332-.276 2.579-.618 4.807-2.236 6.193-4.497l19.12-31.184 22.608 13.865-19.122 31.187c-2.887 4.708-1.41 10.865 3.298 13.752l48.075 29.481c1.586.973 3.397 1.475 5.227 1.475.779 0 1.561-.091 2.332-.276 2.579-.618 4.807-2.236 6.193-4.497l19.12-31.184 101.78 62.419-19.124 31.191c-2.886 4.707-1.411 10.863 3.296 13.75l48.046 29.481c1.586.974 3.398 1.477 5.229 1.477.778 0 1.561-.091 2.331-.275 2.579-.618 4.808-2.236 6.194-4.497l19.13-31.201 22.628 13.877-19.124 31.191c-1.386 2.261-1.817 4.98-1.199 7.559.619 2.579 2.237 4.807 4.498 6.193l48.047 29.452c1.631.999 3.435 1.476 5.217 1.476 3.362 0 6.646-1.696 8.533-4.772l19.13-31.18 5.187 3.181c6.908 4.236 12.945 5.725 18.019 5.725 8.333 0 14.07-4.016 16.797-6.474 10.702-9.643 15.078-29.552 13.116-51.963zm-217.955-278.265c4.718.017 9.652-.134 14.434-.283 9.141-.285 18.423-.573 26.507.278l-161.953 70.184c-.047.021-.095.04-.142.062l-56.094 24.309-35.917-22.026 174.672-75.677c11.947 2.028 24.783 3.085 38.488 3.154.001-.001.003-.001.005-.001zm-207.251-70.653c26.453-33.307 50.497-54.466 57.146-57.504 4.091.499 4.307 2 4.346 4.845.391 29.61 8.669 55.118 24.14 74.997l-133.012 57.633c7.072-21.945 23.673-50.12 47.38-79.971zm-51.134 103.394 151.518-65.652c.452.385.899.774 1.358 1.152 10.272 8.46 22.222 15.247 35.782 20.34l-164.266 71.169-13.834-8.484c-4.407-2.703-9.842-7.471-10.558-18.525zm49.935 97.315-31.025-19.025 13.894-22.661 31.024 19.026zm87.732 53.803-31.025-19.026 13.894-22.661 31.024 19.026zm166.874 102.358-31-19.021 13.898-22.667 31.004 19.014zm87.732 53.779-30.999-19.002 13.895-22.664 31.003 19.01zm57.565-24.627c-.956.86-3.492 3.145-10.974-1.443l-56.493-34.639-211.753-129.861c-.027-.017-.051-.037-.078-.053s-.055-.029-.082-.045l-47.942-29.401c-.018-.011-.033-.024-.051-.035s-.036-.019-.053-.029l-20.45-12.541 38.662-16.755 68.129 41.81c1.632 1.001 3.437 1.478 5.221 1.478 3.362 0 6.645-1.695 8.533-4.771 2.889-4.707 1.414-10.865-3.293-13.753l-56.179-34.476 158.892-68.858 25.72 47.491-43.74 22.723c-4.9 2.546-6.809 8.583-4.264 13.484 1.781 3.428 5.268 5.392 8.883 5.392 1.552 0 3.128-.363 4.602-1.128l44.045-22.882 18.891 34.882-31.623 16.429c-4.9 2.546-6.809 8.583-4.264 13.484 1.781 3.428 5.269 5.392 8.883 5.392 1.553 0 3.128-.363 4.602-1.128l31.928-16.588 16.373 30.231-16.416 8.519c-4.901 2.544-6.813 8.58-4.27 13.482 1.78 3.43 5.27 5.395 8.885 5.395 1.551 0 3.125-.362 4.598-1.126l16.729-8.682 34.039 62.85c2.843 5.979 5.082 12.059 6.79 18.047l-156.544-95.993c-4.709-2.888-10.866-1.411-13.752 3.297-2.888 4.708-1.411 10.865 3.297 13.752l171.337 105.064c.673 14.94-2.118 26.75-6.818 30.985z"/><path d="m272.854 288.506c-3.905 3.905-3.905 10.237 0 14.142l.028.028c1.949 1.949 4.499 2.922 7.051 2.922 2.56 0 5.121-.98 7.077-2.936 3.905-3.905 3.892-10.251-.014-14.157-3.905-3.904-10.235-3.904-14.142.001z"/></svg>