<?xml version="1.0" encoding="iso-8859-1"?>
<!-- Generator: Adobe Illustrator 16.0.0, SVG Export Plug-In . SVG Version: 6.00 Build 0)  -->
<!DOCTYPE svg PUBLIC "-//W3C//DTD SVG 1.1//EN" "http://www.w3.org/Graphics/SVG/1.1/DTD/svg11.dtd">
<svg version="1.1" id="Capa_1" xmlns="http://www.w3.org/2000/svg" xmlns:xlink="http://www.w3.org/1999/xlink" x="0px" y="0px"
	 width="469.548px" height="469.548px" viewBox="0 0 469.548 469.548" style="enable-background:new 0 0 469.548 469.548;"
	 xml:space="preserve">
<g>
	<g>
		<path d="M280.708,206.063c1.979,1.663,3.711,3.723,5.053,6.428l48.466-20.055c4.332-1.79,6.389-6.755,4.593-11.085L265.953,5.243
			C264.602,1.978,261.437,0,258.111,0c-1.082,0-2.188,0.202-3.246,0.643L135.319,50.119c-4.326,1.785-6.388,6.75-4.59,11.081
			l56.37,136.229c-3.737,3.791-8.023,8.275-13.425,13.804c-19.969,20.419-19.586,32.666-25.183,67.21
			c-3.731,22.999-13.739,31.094-9.073,44.728c3.036,8.219,7.935,14.358,11.379,18.001c0.523,0.537,0.96,0.994,1.401,1.423
			c1.286,1.258,2.15,1.996,2.394,2.196c0.722,0.717,1.427,1.422,2.212,2.191l-0.008,0.009l2.661,2.604l1.429,1.395l2.645,2.601
			l1.422,1.395l1.431,1.395l-0.034,0.061c31.106,30.989,34.919,37.613,56.908,62.184c23.412,26.148,33.586,50.926,33.586,50.926
			s75.853-25.367,68.223-38.179c-7.635-12.815-10.243-31.907-10.243-31.907c-2.421-44.787-37.65-101.027-35.041-101.027
			c0.185,0,0.557,0.276,1.15,0.861c5.205,5.19,8.836,8.02,13.068,8.02c2.997,0,6.287-1.427,10.644-4.44
			c10.487-7.253-10.411-29.731-10.411-29.731s4.812-1.302,11.221-10.892c6.403-9.598-32.974-30.038-32.974-30.038
			s16.799-3.4,9.906-17.783c-0.076-0.165-0.16-0.283-0.244-0.437c-1.555-3.069-3.467-5.025-5.507-6.235
			c-2.412-1.427-5.005-1.859-7.441-1.859c-3.13,0-5.979,0.659-7.851,0.659c-0.958,0-1.655-0.172-1.995-0.697
			c-1.944-3.072-4.941-11.313-4.941-11.313c-5.391-14.792-11.786-18.755-17.098-18.755c-6.113,0-10.786,5.26-10.786,5.26
			s-17.985,11.475-8.849,51.081c0.059,0.23,0.08,0.433,0.134,0.667c0.591,2.499,1.132,4.885,1.611,7.157
			c7.276,34.22,2.748,43.053,2.748,43.053c-3.196,2.744-6.156,3.843-8.838,3.843c-5.601,0-9.993-4.733-12.83-8.977
			c-0.28-0.846-0.549-1.735-0.801-2.642c-0.227-0.809-0.437-1.654-0.637-2.496c-2.981-12.68-3.522-29.21-3.561-30.545l1.396-2.023
			c1.407-2.897,3.1-5.274,4.829-7.41l1.875,4.544c1.348,3.266,4.514,5.241,7.842,5.241c1.084,0,2.184-0.212,3.242-0.641l1.02-0.433
			c-0.517-2.469-1.074-5.021-1.725-7.777c0-0.014-0.008-0.03-0.008-0.038l-2.529,1.042c-0.046,0-0.431-0.006-0.587-0.391l-3.07-7.42
			h-0.008l-0.637-1.537l-1.185-2.875L193.202,191.5c-0.016,0.016-0.036,0.024-0.044,0.04L137.98,58.193
			c-0.134-0.32,0.024-0.689,0.345-0.823L257.87,7.896c0.085-0.032,0.161-0.046,0.245-0.046c0.048,0,0.433,0.006,0.593,0.395
			l72.875,176.104c0.132,0.322-0.024,0.689-0.345,0.823L280.708,206.063z"/>
		<path d="M211.57,203.691c-0.081,0.096-0.119,0.222-0.205,0.307c0.032,0.142,0.062,0.471,0.1,0.881
			C211.508,204.493,211.524,204.078,211.57,203.691z"/>
		<path d="M220.769,181.021c0.277-0.307,0.533-0.581,0.793-0.84c-0.172,0.108-0.336,0.227-0.509,0.339
			c-0.032,0.052-0.032,0.102-0.054,0.164C220.927,180.785,220.835,180.903,220.769,181.021z"/>
		<path d="M238.042,164.685c2.328,3.062,5.706,4.875,9.474,5.093c0.244,0.016,0.473,0.12,0.733,0.12
			c1.727,0,3.434-0.347,5.105-1.036c7.017-2.897,9.922-10.269,6.916-17.524c-2.945-7.089-10.362-10.361-17.271-7.514
			c-3.362,1.391-5.915,3.959-7.18,7.226c-1.238,3.208-1.146,6.869,0.274,10.293C236.605,162.581,237.28,163.689,238.042,164.685z"/>
		<polygon points="249.59,135.981 220.32,58.973 199.089,67.755 232.797,142.931 		"/>
	</g>
</g>
<g>
</g>
<g>
</g>
<g>
</g>
<g>
</g>
<g>
</g>
<g>
</g>
<g>
</g>
<g>
</g>
<g>
</g>
<g>
</g>
<g>
</g>
<g>
</g>
<g>
</g>
<g>
</g>
<g>
</g>
</svg>
