<svg id="Layer_1" enable-background="new 0 0 511.808 511.808" height="512" viewBox="0 0 511.808 511.808" width="512" xmlns="http://www.w3.org/2000/svg"><path d="m496.808 60.619h-481.808c-8.284 0-15 6.716-15 15v360.569c0 8.284 6.716 15 15 15h481.808c8.284 0 15-6.716 15-15v-360.569c0-8.284-6.716-15-15-15zm-255.954 245.758c-21.899-6.273-37.984-26.517-37.984-50.474 0-23.964 16.095-44.214 38.006-50.48zm30.022-100.557c21.216 6.699 36.646 26.616 36.646 50.084 0 23.476-15.441 43.399-36.668 50.091zm-240.876-45.944c46.341 7.252 81.913 47.551 81.913 96.028s-35.572 88.776-81.913 96.028zm0 222.329c62.936-7.461 111.913-61.252 111.913-126.301s-48.977-118.84-111.913-126.301v-38.984h210.901l-.018 84.064c-38.592 6.811-68.012 40.627-68.012 81.221 0 40.582 29.403 74.389 67.977 81.214l-.018 84.07h-210.83zm240.829 38.983.018-84.304c37.933-7.348 66.675-40.856 66.675-80.981 0-40.112-28.724-73.613-66.64-80.974l.018-84.31h210.907v38.984c-62.936 7.461-111.913 61.252-111.913 126.301s48.977 118.84 111.913 126.301v38.984h-210.978zm210.979-261.312v192.056c-46.341-7.252-81.913-47.551-81.913-96.028s35.572-88.776 81.913-96.028z"/></svg>