<?xml version="1.0" encoding="iso-8859-1"?>
<!-- Generator: Adobe Illustrator 16.0.0, SVG Export Plug-In . SVG Version: 6.00 Build 0)  -->
<!DOCTYPE svg PUBLIC "-//W3C//DTD SVG 1.1//EN" "http://www.w3.org/Graphics/SVG/1.1/DTD/svg11.dtd">
<svg version="1.1" id="Capa_1" xmlns="http://www.w3.org/2000/svg" xmlns:xlink="http://www.w3.org/1999/xlink" x="0px" y="0px"
	 width="304.647px" height="304.646px" viewBox="0 0 304.647 304.646" style="enable-background:new 0 0 304.647 304.646;"
	 xml:space="preserve">
<g>
	<g>
		<path d="M133.486,44.271v12.298h-10.631v6.993h54.241v-6.993h-11.05V44.271H133.486z M160.744,53.918h-21.955v-4.344h21.955
			V53.918z"/>
		<path d="M149.764,112.206c19.157,0,34.923,10.514,36.653,23.905h81.069l-21.479-64.452c-2.78-8.334-12.152-15.089-20.939-15.089
			h-19.59l2.75,31.167h-39.633c-1.958,2.555-7.203,7.428-18.802,7.55c-0.134,0-0.267,0-0.399,0c-11.56,0-17.051-5.049-19.079-7.55
			H89.63l2.747-31.167H73.203c-8.785,0-17.953,6.817-20.482,15.234l-19.317,64.307h79.705
			C114.837,122.726,130.612,112.206,149.764,112.206z"/>
		<path d="M160.273,87.737h-21.717c2.434,1.287,5.976,2.369,11.182,2.248C154.616,89.938,157.956,88.917,160.273,87.737z"/>
		<polygon points="182.399,56.569 182.399,68.865 117.548,68.865 117.548,56.569 95.039,56.569 97.679,56.803 95.419,82.435 
			202.438,82.435 200.17,56.803 202.805,56.569 		"/>
		<path d="M149.764,159.594c15.925,0,29.098-7.933,31.201-18.181h-62.399C120.665,151.661,133.835,159.594,149.764,159.594z"/>
		<path d="M149.764,117.508c-16.14,0-29.471,8.145-31.294,18.603h62.587C179.24,125.653,165.901,117.508,149.764,117.508z"/>
		<rect x="130.682" y="254.845" width="41.666" height="5.525"/>
		<path d="M269.251,141.413h-82.887c-1.998,13.184-17.646,23.482-36.601,23.482s-34.598-10.299-36.602-23.482H31.814L0.649,245.142
			c-2.526,8.409,2.545,15.229,11.333,15.229h61.252l-2.628-0.347l6.172-46.753h47.742c2.636-2.227,11.521-8.627,26.989-8.627
			c16.35,0,24.314,6.203,26.825,8.627h47.303l7.053,46.711l-2.626,0.394h62.93c8.782,0,13.65-6.752,10.874-15.089L269.251,141.413z"
			/>
		<polygon points="194.64,260.37 191.476,246.669 114.083,246.669 111.979,260.37 125.38,260.37 125.38,249.543 177.651,249.543 
			177.651,260.37 		"/>
		<polygon points="75.908,260.37 109.296,260.37 106.676,259.972 109.54,241.366 195.696,241.366 199.942,259.774 197.358,260.37 
			227.386,260.37 221.08,218.572 81.428,218.572 		"/>
		<path d="M134.843,213.271h33.797c-3.785-1.73-9.3-3.325-17.131-3.325C144.324,209.94,138.825,211.53,134.843,213.271z"/>
	</g>
</g>
<g>
</g>
<g>
</g>
<g>
</g>
<g>
</g>
<g>
</g>
<g>
</g>
<g>
</g>
<g>
</g>
<g>
</g>
<g>
</g>
<g>
</g>
<g>
</g>
<g>
</g>
<g>
</g>
<g>
</g>
</svg>
