<?xml version="1.0" encoding="iso-8859-1"?>
<!-- Generator: Adobe Illustrator 16.0.0, SVG Export Plug-In . SVG Version: 6.00 Build 0)  -->
<!DOCTYPE svg PUBLIC "-//W3C//DTD SVG 1.1//EN" "http://www.w3.org/Graphics/SVG/1.1/DTD/svg11.dtd">
<svg version="1.1" id="Capa_1" xmlns="http://www.w3.org/2000/svg" xmlns:xlink="http://www.w3.org/1999/xlink" x="0px" y="0px"
	 width="457.406px" height="457.406px" viewBox="0 0 457.406 457.406" style="enable-background:new 0 0 457.406 457.406;"
	 xml:space="preserve">
<g>
	<g>
		<path d="M417.312,77.435H236.553v47.009c54.048,4.041,96.819,49.207,96.819,104.271c0,55.059-42.771,100.214-96.819,104.262
			v47.003h180.743c0-22.101,18.001-40.103,40.103-40.103V322.32h-65.967c-14.03,0-25.439-11.412-25.439-25.442V164.935
			c0-14.026,11.409-25.441,25.439-25.441h65.967v-21.957C435.297,117.537,417.312,99.544,417.312,77.435z"/>
		<path d="M317.671,228.699c0-46.396-35.727-84.566-81.118-88.562v177.126C281.944,313.276,317.671,275.113,317.671,228.699z"/>
		<path d="M220.854,317.275v-177.13c-45.382,3.993-81.11,42.164-81.11,88.569C139.743,275.113,175.472,313.276,220.854,317.275z"/>
		<path d="M433.013,379.979h24.394v-24.401C443.953,355.578,433.013,366.526,433.013,379.979z"/>
		<path d="M381.693,164.935v131.943c0,5.374,4.368,9.742,9.738,9.742h65.967V155.195h-65.967
			C386.062,155.195,381.693,159.563,381.693,164.935z"/>
		<path d="M220.854,379.979v-47.003c-54.04-4.048-96.812-49.203-96.812-104.277c0-55.056,42.771-100.222,96.812-104.263V77.427
			H40.106c0,22.109-17.993,40.103-40.098,40.103v21.957h63.776c14.026,0,25.441,11.416,25.441,25.441v131.942
			c0,14.03-11.415,25.443-25.441,25.443H0v17.564c22.113,0,40.099,17.985,40.099,40.095h180.755V379.979z"/>
		<path d="M0,355.578v24.401h24.397C24.405,366.526,13.455,355.578,0,355.578z"/>
		<path d="M73.517,296.878V164.935c0-5.372-4.374-9.74-9.74-9.74H0V306.62h63.776C69.143,306.62,73.517,302.252,73.517,296.878z"/>
		<path d="M24.405,77.435H0v24.401C13.455,101.836,24.405,90.892,24.405,77.435z"/>
		<path d="M457.406,101.836V77.435h-24.394C433.013,90.892,443.953,101.836,457.406,101.836z"/>
	</g>
</g>
<g>
</g>
<g>
</g>
<g>
</g>
<g>
</g>
<g>
</g>
<g>
</g>
<g>
</g>
<g>
</g>
<g>
</g>
<g>
</g>
<g>
</g>
<g>
</g>
<g>
</g>
<g>
</g>
<g>
</g>
</svg>
