<?xml version="1.0" encoding="iso-8859-1"?>
<!-- Generator: Adobe Illustrator 18.0.0, SVG Export Plug-In . SVG Version: 6.00 Build 0)  -->
<!DOCTYPE svg PUBLIC "-//W3C//DTD SVG 1.1//EN" "http://www.w3.org/Graphics/SVG/1.1/DTD/svg11.dtd">
<svg version="1.1" id="Capa_1" xmlns="http://www.w3.org/2000/svg" xmlns:xlink="http://www.w3.org/1999/xlink" x="0px" y="0px"
	 viewBox="0 0 486.881 486.881" style="enable-background:new 0 0 486.881 486.881;" xml:space="preserve">
<g id="XMLID_277_">
	<path id="XMLID_282_" d="M83.462,253.184v-22.413l13.795-3.896c9.122-2.582,14.418-12.07,11.836-21.189
		c-2.563-9.136-12.152-14.4-21.188-11.853l-4.442,1.258v-10.845c0-14.225-11.533-25.748-25.747-25.748
		c-9.389,0-17.536,5.086-22.027,12.596c-2.766,3.497-30.609,47.617-33.006,51.379c-3.823,6.01-3.538,13.755,0.721,19.462
		c4.173,5.632,11.45,8.222,18.44,6.269l10.124-2.867l0.247,14.602c0.081,4.764,0.875,9.486,2.357,14.014
		c4.12,12.582,12.624,38.522,14.075,42.703l-10.694,65.065c-1.543,9.364,4.794,18.189,14.148,19.732
		c9.521,1.533,18.203-4.946,19.714-14.149l4.308-26.2c1.324,5.733,5.298,10.728,11.332,12.607
		c9.151,2.873,18.707-2.314,21.506-11.249l17.685-56.5c1.996-6.37,0.119-13.327-4.81-17.819L83.462,253.184z M79.121,342.884
		l4.105-24.954c0.472-2.832,0.219-5.725-0.717-8.431l-5.467-15.707l13.578,12.363L79.121,342.884z"/>
	<path id="XMLID_281_" d="M66.296,152.062c17.787,0,32.186-14.409,32.186-32.186c0-17.777-14.398-32.185-32.186-32.185
		c-17.784,0-32.184,14.408-32.184,32.185C34.113,137.653,48.512,152.062,66.296,152.062z"/>
	<path id="XMLID_280_" d="M484.201,219.985c-2.397-3.765-30.24-47.885-33.006-51.379c-4.492-7.519-12.641-12.598-22.027-12.598
		c-14.217,0-25.746,11.525-25.746,25.748v44.105l-7.26,1.559c-9.271,1.986-15.172,11.114-13.177,20.375
		c1.525,7.091,7.276,11.97,14.014,13.092l-22.244,29.135c-1.726,2.263-2.866,4.919-3.302,7.735l-9.454,59.694
		c-1.493,9.362,4.894,18.154,14.265,19.638c9.337,1.467,18.154-4.894,19.631-14.273l8.781-55.403l14.652-19.192l-0.873,17.86
		c-0.051,1.09,0,2.188,0.15,3.262l9.657,67.897c1.291,9.085,9.64,15.883,19.413,14.583c9.387-1.34,15.906-10.031,14.582-19.411
		l-9.42-66.282l2.078-56.207l0,0l18.406-3.948c5.481-1.172,10.059-4.961,12.219-10.15
		C487.72,230.647,487.218,224.729,484.201,219.985z"/>
	<path id="XMLID_279_" d="M420.585,149.571c17.785,0,32.186-14.407,32.186-32.185c0-17.777-14.4-32.185-32.186-32.185
		c-17.787,0-32.185,14.408-32.185,32.185C388.4,135.164,402.798,149.571,420.585,149.571z"/>
	<path id="XMLID_278_" d="M318.615,321.419c-16.378,0-29.67,13.293-29.67,29.679c0,16.393,13.292,29.687,29.67,29.687
		c16.395,0,29.703-13.294,29.703-29.687C348.318,334.712,335.009,321.419,318.615,321.419z"/>
</g>
<g>
</g>
<g>
</g>
<g>
</g>
<g>
</g>
<g>
</g>
<g>
</g>
<g>
</g>
<g>
</g>
<g>
</g>
<g>
</g>
<g>
</g>
<g>
</g>
<g>
</g>
<g>
</g>
<g>
</g>
</svg>
