<?xml version="1.0" encoding="iso-8859-1"?>
<!-- Generator: Adobe Illustrator 16.0.0, SVG Export Plug-In . SVG Version: 6.00 Build 0)  -->
<!DOCTYPE svg PUBLIC "-//W3C//DTD SVG 1.1//EN" "http://www.w3.org/Graphics/SVG/1.1/DTD/svg11.dtd">
<svg version="1.1" id="Capa_1" xmlns="http://www.w3.org/2000/svg" xmlns:xlink="http://www.w3.org/1999/xlink" x="0px" y="0px"
	 width="323.788px" height="323.788px" viewBox="0 0 323.788 323.788" style="enable-background:new 0 0 323.788 323.788;"
	 xml:space="preserve">
<g>
	<g>
		<path d="M199.177,0c12.914,0,23.39,10.47,23.39,23.39c0,12.917-10.476,23.39-23.39,23.39c-12.92,0-23.39-10.473-23.39-23.39
			C175.787,10.47,186.257,0,199.177,0z"/>
		<path d="M78.842,189.281c-7.482-4.79-17.424-2.61-22.211,4.872c-4.79,7.473-2.61,17.425,4.873,22.209l46.23,29.608
			c7.017,4.484,16.296,2.88,21.391-3.707l56.547-73.104l43.921,56.674l6.432,78.081c0.688,8.399,7.726,14.758,16.006,14.758
			c0.439,0,0.891-0.021,1.336-0.052c8.849-0.73,15.436-8.492,14.705-17.347l-6.819-82.829c-0.254-3.107-1.408-6.068-3.313-8.533
			l-35.828-54.21l2.895-73.589c0,0,0.813-4.236,0.969-9.448c4.552-5.333,10.543-12.79,18.543-23.289
			c11.987-15.726,23.017-31.115,23.131-31.268c3.525-4.927,2.392-11.772-2.532-15.299c-4.92-3.524-11.771-2.39-15.297,2.53
			c-11.992,16.756-25.952,35.294-36.117,47.807c-12.914-1.504-31.115-1.543-41.808,0.461c-3.807,0.717-6.204,2.361-7.726,4.254
			c-0.365,0.381-0.72,0.779-1.033,1.225c-19.04,26.598-43.041,57.7-48.941,62.036c-5.129,2.781-7.205,9.132-4.624,14.435
			c1.897,3.901,5.802,6.172,9.867,6.172c1.613,0,3.247-0.354,4.79-1.108c2.98-1.453,7.974-3.881,33.611-37.498
			c0.922-1.211,1.836-2.413,2.742-3.611l-1.347,40.588l0.249,0.065l-46.79,70.798L78.842,189.281z"/>
		<path d="M184.921,273.348c13.93,0,25.218,11.294,25.218,25.223c0,13.924-11.288,25.218-25.218,25.218
			c-13.924,0-25.217-11.294-25.217-25.218C159.704,284.642,170.997,273.348,184.921,273.348z"/>
	</g>
</g>
<g>
</g>
<g>
</g>
<g>
</g>
<g>
</g>
<g>
</g>
<g>
</g>
<g>
</g>
<g>
</g>
<g>
</g>
<g>
</g>
<g>
</g>
<g>
</g>
<g>
</g>
<g>
</g>
<g>
</g>
</svg>
