<svg xmlns="http://www.w3.org/2000/svg" viewBox="0 0 512 512"><circle cx="445.554" cy="235.867" r="40.375" fill="#474747" transform="rotate(-8.231 445.62 235.873)"/><path fill="#474747" d="M24.919 148.365a5.001 5.001 0 0 0 .738-9.945l-7.086-1.066a5 5 0 0 0-1.488 9.888l7.086 1.066c.252.038.502.057.75.057z"/><circle cx="87.678" cy="229.329" r="42.247" fill="#474747" transform="rotate(-77.907 87.672 229.328)"/><path fill="#474747" d="m304.305 330.193-90.45-18.05c-11.988-2.206-23.494 5.724-25.7 17.712-2.206 11.988 5.724 23.494 17.712 25.7l90.45 18.05c11.988 2.206 23.494-5.724 25.7-17.712 2.205-11.987-5.725-23.494-17.712-25.7z"/><path fill="#474747" d="m474.446 304.12-11.741-1.998-295.424-48.791 29.815-67.336 64.618-17.962c9.959-2.768 15.605-13.276 12.418-23.109-3.001-9.258-12.764-14.507-22.142-11.905l-20.845 5.868a4.942 4.942 0 0 0-2.123-.872l-123.721-18.627a5 5 0 1 0-1.489 9.888l108.03 16.265-39.932 15.645-118.946-18.654a5 5 0 0 0-1.549 9.879l105.922 16.612-20.25 43.302a52.777 52.777 0 0 1 2.301 9.521c1.999 13.812-1.501 27.575-9.854 38.755-9.814 13.135-25.473 20.977-41.887 20.977-11.335 0-22.138-3.595-31.24-10.395a52.687 52.687 0 0 1-3.326-2.723l-26.913 21.104c-12.754 10.002-10.348 29.589 3.626 36.555l86.895 31.322c8.472 3.201 17.765-.797 21.233-9.076a16.45 16.45 0 0 0-.035-12.899 16.454 16.454 0 0 0-9.267-8.971L74.24 305.42a5 5 0 0 1-2.855-6.469 4.998 4.998 0 0 1 6.469-2.855l54.38 21.075c6.748 2.615 12.023 7.722 14.856 14.381a27.115 27.115 0 0 1 1.241 3.614l30.154 5.284a31.907 31.907 0 0 1-.163-12.406c2.801-15.222 16.055-26.27 31.516-26.27 1.944 0 3.905.179 5.829.533l.148.028 59.978 11.969L455.812 345.4l13.216 1.349c11.765.994 22.131-7.684 23.223-19.44 1.04-11.196-6.721-21.303-17.805-23.189z"/></svg>