<?xml version="1.0" encoding="iso-8859-1"?>
<!-- Generator: Adobe Illustrator 16.0.0, SVG Export Plug-In . SVG Version: 6.00 Build 0)  -->
<!DOCTYPE svg PUBLIC "-//W3C//DTD SVG 1.1//EN" "http://www.w3.org/Graphics/SVG/1.1/DTD/svg11.dtd">
<svg version="1.1" id="Capa_1" xmlns="http://www.w3.org/2000/svg" xmlns:xlink="http://www.w3.org/1999/xlink" x="0px" y="0px"
	 width="301.854px" height="301.854px" viewBox="0 0 301.854 301.854" style="enable-background:new 0 0 301.854 301.854;"
	 xml:space="preserve">
<g>
	<g>
		<path d="M65.639,248.084c5.181-28.283,14.703-49.187,18.776-57.208h-8.759h-0.898h-0.619l0.011-0.616l-32.144-82.77
			c-2.879-8.008-11.697-12.147-19.703-9.269c-8.002,2.879-12.153,11.697-9.269,19.703L65.639,248.084z"/>
		<path d="M69.489,257.602l3.36,8.316l0.202,1.346c0,0-1.315,7.736-2.939,17.295c-1.033,6.131,4.117,11.501,12.71,14.576
			c4.958-29.986-4.661-55.814-8.679-64.835C72.309,241.445,70.665,249.249,69.489,257.602z"/>
		<path d="M148.652,255.908c-1.119-7.462-2.597-14.452-4.246-20.925c-4.153,9.528-13.181,34.725-8.409,63.95
			c8.267-3.102,13.16-8.389,12.143-14.385l-2.938-17.295l0.647-4.423L148.652,255.908z"/>
		<path d="M75.506,229.246l0.505-0.27c0.72,1.326,17.279,32.561,10.657,71.313c3.972,0.994,8.469,1.563,13.321,1.563h18.286
			c5.085,0,9.779-0.632,13.888-1.719c-6.517-38.463,9.761-69.46,10.654-71.106c-5.823-20.536-12.971-34.631-14.854-38.147h-8.202
			c12.057-3.826,21.605-13.203,25.557-25.154c-4.787-0.503-6.75-7.97-7.402-10.496c-3.855-14.999-19.337-17.226-25.818-17.484
			c-1.652-0.064-4.347-0.064-6.017,0c-6.592,0.254-22.344,2.465-26.199,17.484c-0.652,2.531-2.615,9.993-7.402,10.501
			c3.945,11.951,13.494,21.334,25.551,25.155h-7.63C88.508,194.408,81.329,208.591,75.506,229.246z M87.664,209.797
			c0.546,0,0.992,0.445,0.992,0.994s-0.445,0.994-0.992,0.994c-0.551,0-0.997-0.445-0.997-0.994
			C86.673,210.242,87.118,209.797,87.664,209.797z M84.78,212.055c0.551,0,0.997,0.435,0.997,0.989c0,0.554-0.44,0.999-0.997,0.999
			c-0.547,0-0.992-0.445-0.992-0.999C83.788,212.489,84.239,212.055,84.78,212.055z M96.229,212.055
			c0.552,0,0.997,0.435,0.997,0.989c0,0.554-0.44,0.999-0.997,0.999c-0.546,0-0.991-0.445-0.991-0.999
			C95.237,212.489,95.683,212.055,96.229,212.055z M93.539,209.797c0.551,0,0.999,0.445,0.999,0.994s-0.448,0.994-0.999,0.994
			c-0.544,0-0.997-0.445-0.997-0.994S92.995,209.797,93.539,209.797z M98.057,216.177l-1.755,1.366v7.333l-5.111,4.271l-5.95-4.116
			v-7.488l-1.675-1.066l7.017-4.572L98.057,216.177z"/>
		<path d="M77.315,152.39c4.306-16.767,21.526-19.2,28.664-19.475c1.719-0.07,4.513-0.07,6.229,0
			c7.058,0.285,23.98,2.742,28.278,19.47c5.473,21.3,14.794-1.947,10.902-15.959c-3.389-12.202-1.336-22.631-1.022-30.007
			c0.075-1.719-0.992-2.858-2.688-2.571l-11.757,1.382l-1.771-4.958c-1.973-5.515-7.337-7.094-11.982-3.532l-3.332,2.559
			c-0.326,0.253-0.709,0.455-1.069,0.678l-6.511-4.587c-1.406-0.992-3.674-0.981-5.075,0.026l-6.136,4.417l-7.534-4.293
			c-5.085-2.902-10.139-0.601-11.283,5.147l-0.971,4.867l-10.131-1.701c-1.698-0.287-2.763,0.852-2.69,2.571
			c0.313,7.376,2.361,17.805-1.023,30.007C62.522,150.445,71.842,173.689,77.315,152.39z"/>
		<path d="M143.313,190.26l0.01,0.616h-0.694h-8.687c3.998,7.871,13.267,28.144,18.502,55.645l51.978-128.596
			c2.863-7.938-1.211-16.666-9.088-19.612V77.866c2.139-1.098,5.008-2.346,8.456-3.475L248.665,0
			c-4.826,0.042-9.507,1.007-13.712,3.361c-22.09,12.371-52.765-13.429-50.005,17.673v77.183c-4.262,1.463-7.855,4.707-9.491,9.274
			L143.313,190.26z"/>
		<path d="M254.107,2.354l-42.419,73.349c0,0,63.188-0.44,70.256,0c7.068,0.439,13.256-59.207,0-67.606S254.107,2.354,254.107,2.354
			z"/>
	</g>
</g>
<g>
</g>
<g>
</g>
<g>
</g>
<g>
</g>
<g>
</g>
<g>
</g>
<g>
</g>
<g>
</g>
<g>
</g>
<g>
</g>
<g>
</g>
<g>
</g>
<g>
</g>
<g>
</g>
<g>
</g>
</svg>
